<svg width="33" height="32" viewBox="0 0 33 32" fill="none" xmlns="http://www.w3.org/2000/svg">
<path d="M23.242 4.74669V2.66669C23.242 2.12002 22.7887 1.66669 22.242 1.66669C21.6953 1.66669 21.242 2.12002 21.242 2.66669V4.66669H12.5753V2.66669C12.5753 2.12002 12.122 1.66669 11.5753 1.66669C11.0287 1.66669 10.5753 2.12002 10.5753 2.66669V4.74669C6.97534 5.08002 5.22867 7.22669 4.962 10.4134C4.93534 10.8 5.25534 11.12 5.62867 11.12H28.1887C28.5753 11.12 28.8953 10.7867 28.8553 10.4134C28.5887 7.22669 26.842 5.08002 23.242 4.74669Z" fill="#DC3482"/>
<path d="M27.5754 13.12H6.24202C5.50869 13.12 4.90869 13.72 4.90869 14.4533V22.6667C4.90869 26.6667 6.90869 29.3333 11.5754 29.3333H22.242C26.9087 29.3333 28.9087 26.6667 28.9087 22.6667V14.4533C28.9087 13.72 28.3087 13.12 27.5754 13.12ZM13.1887 24.28C13.122 24.3333 13.0554 24.4 12.9887 24.44C12.9087 24.4933 12.8287 24.5333 12.7487 24.56C12.6687 24.6 12.5887 24.6267 12.5087 24.64C12.4154 24.6533 12.3354 24.6667 12.242 24.6667C12.0687 24.6667 11.8954 24.6267 11.7354 24.56C11.562 24.4933 11.4287 24.4 11.2954 24.28C11.0554 24.0267 10.9087 23.68 10.9087 23.3333C10.9087 22.9867 11.0554 22.64 11.2954 22.3867C11.4287 22.2667 11.562 22.1733 11.7354 22.1067C11.9754 22 12.242 21.9733 12.5087 22.0267C12.5887 22.04 12.6687 22.0667 12.7487 22.1067C12.8287 22.1333 12.9087 22.1733 12.9887 22.2267C13.0554 22.28 13.122 22.3333 13.1887 22.3867C13.4287 22.64 13.5754 22.9867 13.5754 23.3333C13.5754 23.68 13.4287 24.0267 13.1887 24.28ZM13.1887 19.6133C12.9354 19.8533 12.5887 20 12.242 20C11.8954 20 11.5487 19.8533 11.2954 19.6133C11.0554 19.36 10.9087 19.0133 10.9087 18.6667C10.9087 18.32 11.0554 17.9733 11.2954 17.72C11.6687 17.3467 12.2554 17.2267 12.7487 17.44C12.922 17.5067 13.0687 17.6 13.1887 17.72C13.4287 17.9733 13.5754 18.32 13.5754 18.6667C13.5754 19.0133 13.4287 19.36 13.1887 19.6133ZM17.8554 24.28C17.602 24.52 17.2554 24.6667 16.9087 24.6667C16.562 24.6667 16.2154 24.52 15.962 24.28C15.722 24.0267 15.5754 23.68 15.5754 23.3333C15.5754 22.9867 15.722 22.64 15.962 22.3867C16.4554 21.8933 17.362 21.8933 17.8554 22.3867C18.0954 22.64 18.242 22.9867 18.242 23.3333C18.242 23.68 18.0954 24.0267 17.8554 24.28ZM17.8554 19.6133C17.7887 19.6667 17.722 19.72 17.6554 19.7733C17.5754 19.8267 17.4954 19.8667 17.4154 19.8933C17.3354 19.9333 17.2554 19.96 17.1754 19.9733C17.082 19.9867 17.002 20 16.9087 20C16.562 20 16.2154 19.8533 15.962 19.6133C15.722 19.36 15.5754 19.0133 15.5754 18.6667C15.5754 18.32 15.722 17.9733 15.962 17.72C16.082 17.6 16.2287 17.5067 16.402 17.44C16.8954 17.2267 17.482 17.3467 17.8554 17.72C18.0954 17.9733 18.242 18.32 18.242 18.6667C18.242 19.0133 18.0954 19.36 17.8554 19.6133ZM22.522 24.28C22.2687 24.52 21.922 24.6667 21.5754 24.6667C21.2287 24.6667 20.882 24.52 20.6287 24.28C20.3887 24.0267 20.242 23.68 20.242 23.3333C20.242 22.9867 20.3887 22.64 20.6287 22.3867C21.122 21.8933 22.0287 21.8933 22.522 22.3867C22.762 22.64 22.9087 22.9867 22.9087 23.3333C22.9087 23.68 22.762 24.0267 22.522 24.28ZM22.522 19.6133C22.4554 19.6667 22.3887 19.72 22.322 19.7733C22.242 19.8267 22.162 19.8667 22.082 19.8933C22.002 19.9333 21.922 19.96 21.842 19.9733C21.7487 19.9867 21.6554 20 21.5754 20C21.2287 20 20.882 19.8533 20.6287 19.6133C20.3887 19.36 20.242 19.0133 20.242 18.6667C20.242 18.32 20.3887 17.9733 20.6287 17.72C20.762 17.6 20.8954 17.5067 21.0687 17.44C21.3087 17.3333 21.5754 17.3067 21.842 17.36C21.922 17.3733 22.002 17.4 22.082 17.44C22.162 17.4667 22.242 17.5067 22.322 17.56C22.3887 17.6133 22.4554 17.6667 22.522 17.72C22.762 17.9733 22.9087 18.32 22.9087 18.6667C22.9087 19.0133 22.762 19.36 22.522 19.6133Z" fill="#DC3482"/>
</svg>
