<svg width="33" height="32" viewBox="0 0 33 32" fill="none" xmlns="http://www.w3.org/2000/svg">
<path d="M16.9088 2.66669C9.56211 2.66669 3.57544 8.65335 3.57544 16C3.57544 23.3467 9.56211 29.3334 16.9088 29.3334C24.2554 29.3334 30.2421 23.3467 30.2421 16C30.2421 8.65335 24.2554 2.66669 16.9088 2.66669ZM22.7088 20.76C22.5221 21.08 22.1888 21.2534 21.8421 21.2534C21.6688 21.2534 21.4954 21.2134 21.3354 21.1067L17.2021 18.64C16.1754 18.0267 15.4154 16.68 15.4154 15.4934V10.0267C15.4154 9.48002 15.8688 9.02669 16.4154 9.02669C16.9621 9.02669 17.4154 9.48002 17.4154 10.0267V15.4934C17.4154 15.9734 17.8154 16.68 18.2288 16.92L22.3621 19.3867C22.8421 19.6667 23.0021 20.28 22.7088 20.76Z" fill="#DC3482"/>
</svg>
