<svg width="64" height="64" viewBox="0 0 64 64" fill="none" xmlns="http://www.w3.org/2000/svg">
<g clip-path="url(#clip0_387_198)">
<path d="M58.5104 14.131L62.4202 10.2212L55.2193 8.78105L53.7791 1.57996L49.869 5.48989C28.8145 -8.81359 -0.0893437 6.52556 0.00610278 32.0117C-0.348448 49.202 14.7972 64.3504 31.9892 63.9941C57.475 64.0882 72.8148 35.1845 58.5104 14.131ZM52.0341 11.9661L54.8183 12.5229L51.3437 15.9975L48.5596 15.4407L48.0028 12.6565L51.4774 9.18195L52.0341 11.9661ZM37.2018 32.0114C36.9154 38.9269 27.0613 38.9251 26.776 32.0114C26.7292 28.2927 30.739 25.6966 34.1032 27.2469L30.6638 30.6864L33.3139 33.3365L36.7534 29.8971C37.0498 30.5625 37.2026 31.2829 37.2018 32.0114ZM36.8581 24.492C31.0118 20.6298 22.9847 24.9557 23.0281 32.0114C23.0281 36.9524 27.0478 40.9721 31.9888 40.9721C39.0446 41.0147 43.3708 32.9884 39.5081 27.1421L44.933 21.7172C53.5257 32.3331 45.7692 48.6231 31.9886 48.5568C22.8655 48.5569 15.4433 41.1345 15.4433 32.0114C15.379 18.2301 31.6672 10.4738 42.283 19.067L36.8581 24.492ZM51.954 51.9766C34.2107 69.6815 3.77861 57.0715 3.754 32.0112C3.65943 9.8447 28.5477 -3.77154 47.1633 8.19562L43.9344 11.4246L44.927 16.3887C31.9746 5.47752 11.6197 14.9165 11.6957 32.0117C11.6955 43.2013 20.7991 52.3048 31.9889 52.3048C49.0847 52.3785 58.5231 32.0256 47.6115 19.0732L52.5755 20.066L55.8046 16.8369C62.9035 27.6036 61.2516 42.9831 51.954 51.9766Z" fill="white"/>
</g>
<defs>
<clipPath id="clip0_387_198">
<rect width="64" height="64" fill="white"/>
</clipPath>
</defs>
</svg>
