<svg width="24" height="25" viewBox="0 0 24 25" fill="none" xmlns="http://www.w3.org/2000/svg">
<path d="M16.14 3.55495L7.11 6.55495C1.04 8.58495 1.04 11.895 7.11 13.915L9.79 14.805L10.68 17.485C12.7 23.555 16.02 23.555 18.04 17.485L21.05 8.46495C22.39 4.41495 20.19 2.20495 16.14 3.55495ZM16.46 8.93495L12.66 12.755C12.51 12.905 12.32 12.975 12.13 12.975C11.94 12.975 11.75 12.905 11.6 12.755C11.31 12.465 11.31 11.985 11.6 11.695L15.4 7.87495C15.69 7.58495 16.17 7.58495 16.46 7.87495C16.75 8.16495 16.75 8.64495 16.46 8.93495Z" fill="#1A000C"/>
</svg>
