<svg width="64" height="64" viewBox="0 0 64 64" fill="none" xmlns="http://www.w3.org/2000/svg">
<g clip-path="url(#clip0_388_247)">
<path d="M54.6669 53.3334C54.4474 53.3327 54.2295 53.2967 54.0215 53.2267L1.35485 35.2267C0.98489 35.0992 0.660164 34.8666 0.420485 34.5573C0.180805 34.248 0.036589 33.8755 0.00551692 33.4854C-0.0234443 33.0955 0.0620638 32.7056 0.251547 32.3635C0.44103 32.0215 0.726244 31.7423 1.07218 31.56L61.0722 0.226712C61.3997 0.0571068 61.7676 -0.0189018 62.1355 0.00704499C62.5034 0.0329918 62.857 0.159889 63.1574 0.373782C63.4579 0.587674 63.6935 0.880277 63.8384 1.21941C63.9833 1.55855 64.0319 1.93108 63.9789 2.29605L56.6455 51.6294C56.5746 52.1034 56.3358 52.5361 55.9727 52.8489C55.6095 53.1616 55.1461 53.3335 54.6669 53.3334ZM7.05618 32.9467L53.0402 48.664L59.4429 5.59204L7.05618 32.9467Z" fill="white"/>
<path d="M25.3335 61.3334C25.0706 61.3344 24.81 61.2834 24.5669 61.1833C24.3238 61.0831 24.1029 60.9359 23.9169 60.7499C23.731 60.564 23.5837 60.3431 23.4836 60.1C23.3835 59.8568 23.3325 59.5963 23.3335 59.3334V41.3334C23.3335 40.8294 23.5255 40.3387 23.8695 39.968L60.5362 0.634694C60.8983 0.246417 61.3998 0.01789 61.9304 -0.000613579C62.461 -0.0191172 62.9772 0.173918 63.3655 0.536027C63.7538 0.898136 63.9823 1.39966 64.0008 1.93026C64.0193 2.46086 63.8263 2.97708 63.4642 3.36536L27.3335 42.12V53.2347L34.0082 44.1494C34.3314 43.7465 34.7979 43.4841 35.31 43.417C35.8222 43.3498 36.3405 43.4832 36.7566 43.7892C37.1727 44.0952 37.4546 44.5502 37.5432 45.059C37.6318 45.5679 37.5204 46.0914 37.2322 46.52L26.9468 60.52C26.7599 60.7719 26.5166 60.9766 26.2365 61.1178C25.9564 61.259 25.6472 61.3328 25.3335 61.3334Z" fill="white"/>
</g>
<defs>
<clipPath id="clip0_388_247">
<rect width="64" height="64" fill="white"/>
</clipPath>
</defs>
</svg>
